<svg xmlns="http://www.w3.org/2000/svg" width="1658.418" height="253.447" xmlns:v="https://vecta.io/nano"><path d="M25.163 165.247C18.864 163.385 0 161.443 0 161.443v-34.72-34.72l4.48-.201c16.147-.725 32.229-6.034 45.977-15.177 14.979-9.961 27.205-24.577 34.114-40.782 4.477-10.5 7.422-23.918 7.428-33.84v-2h34.77 34.77l-.214 5.84C159.65 51.55 138.24 94.894 102.878 124.17c-1.32 1.093-2.442 2.163-2.493 2.378s-37.562 49.833-75.223 38.7zm283.895 81.718c.86-28.304 10.168-57.257 26.312-81.841 8.12-12.365 18.88-24.566 30.309-34.367 2.967-2.544 4.321-3.906 4.16-4.181-.131-.225 13.512-9.75 11.835-11.155-24.782-20.775 51.882-29.609 69.366-25.697 4.71 1.054 19.2 2.121 19.2 2.121v34.88 34.88s-7.786.218-10.062.484c-31.211 3.651-58.196 22.668-72.327 50.972a90.59 90.59 0 0 0-9.403 35.904l-.208 4.32-34.689.081-34.689.081z" fill="#4367f9"/><path d="M91.867 249.523c-1.109-19.444-7.714-37.199-19.482-52.374-3.117-4.02-11.123-12.153-14.946-15.183-12.871-10.203-28.048-16.944-43.36-19.258-5.236-.792-5.587-.972-2.4-1.237 31.643-2.632 60.547-13.473 84.994-31.878 3.948-2.972 3.144-3.057 7.646.805 20.321 17.431 36.294 39.637 45.695 63.525 7.183 18.252 11.425 39.007 11.425 55.904v3.616h-34.675-34.675zM366.4 123.434c-4.771-3.999-13.508-12.599-17.598-17.32-9.292-10.726-16.422-21.337-22.707-33.791-3.971-7.869-6.159-13.128-8.985-21.6-5.176-15.514-7.879-30.728-8.216-46.24L308.8.163l34.75-.081L378.3 0l.206 4.401c1.541 32.854 21.571 63.293 51.208 77.822 8.994 4.409 16.556 6.857 26.267 8.502 2.627.445 4.832.865 4.901.934s-1.002.22-2.379.336c-21.668 1.832-40.684 7.054-59.464 16.332-9.293 4.591-17.274 9.458-25.111 15.313-1.853 1.384-3.513 2.568-3.689 2.631s-1.904-1.214-3.84-2.837zm941.932-19.275l-.257-54.243c-.197-.31-5.217-.416-22.635-.48l-22.382-.082v-8.48-8.48l53.365-.081 53.365-.081-.085 8.561-.085 8.561-21.92.16-21.92.16-.16 54.08-.16 54.08-8.56.085-8.56.085v-53.845zm-771.515-9.365v-62.89l8.56.085 8.56.085v62.72 62.72l-8.56.085-8.56.085zm165.229 62.412c-9.442-1.734-15.581-7.054-18.01-15.608-1.296-4.563-1.343-6.453-1.236-48.724l.104-40.64.856-3.112c2.477-9.009 7.855-14.208 16.897-16.334l3.04-.715h32.96 32.96l3.04.715c3.74.879 8.191 3.034 10.533 5.099 3.717 3.278 6.283 8.785 7.057 15.146.268 2.2.339 14.266.259 43.68l-.801 43.219c-.952 3.561-1.779 5.553-3.312 7.98-2.608 4.129-7.196 7.278-12.937 8.878l-2.56.714-33.28.061c-26.329.048-33.758-.028-35.571-.36zm63.103-17.306c3.27-.847 5.417-2.603 6.832-5.586l.835-1.76v-37.6-37.6l-.838-1.788a10.3 10.3 0 0 0-5.054-5.054l-1.788-.838h-28.48-28.48l-1.496.691c-3.467 1.602-5.696 4.86-6.331 9.254-.434 3.006-.44 68.37-.01 71.174.177 1.144.789 3.014 1.359 4.156.825 1.651 1.397 2.321 2.796 3.274 3.208 2.186 2.319 2.126 32.011 2.149 23.111.018 26.991-.046 28.64-.473zm82.952 17.274c-9.786-1.79-15.572-7.059-18.247-16.62l-.716-2.56-.087-53.04-.087-53.04h8.641 8.64l.086 49.84.086 49.84.719 1.777c.908 2.242 1.925 3.625 3.54 4.812 2.933 2.157 1.254 2.04 30.941 2.149 28.484.104 29.306.068 32.189-1.393 1.848-.937 3.896-3.219 4.667-5.203.554-1.425.592-4.081.744-51.582l.16-50.08h8.96 8.96l.095 50.24-.264 53.204c-1.381 11.414-7.066 18.349-17.431 21.267l-2.56.721-33.28.061c-27.507.05-33.709-.018-35.756-.392zm147.1.038c-6.008-1.105-10.057-3.039-13.458-6.428-2.61-2.601-4.475-5.993-5.624-10.229-.686-2.528-.698-3.042-1.01-41.44-.336-41.332-.25-45.299 1.088-50.4 1.026-3.91 2.92-7.291 5.565-9.933 3.752-3.747 8.732-5.817 15.681-6.516 5.169-.52 84.709-.489 85.231.033.278.278.384 2.596.384 8.416s-.106 8.138-.384 8.416c-.294.294-9.605.386-39.92.392l-40.939.331c-3.83.883-7.036 3.532-8.419 6.956l-.737 1.824-.087 35.121c-.095 38.414-.135 37.475 1.756 40.951 1.451 2.665 4.238 4.593 7.706 5.329 1.177.25 9.646.359 27.68.356 28.131 0 27.79.015 30.802-1.75 1.698-.995 3.034-2.723 4.052-5.24.728-1.8.73-1.867.73-18.286v-16.48l-31.28-.082-31.28-.082v-8.478-8.478h40.175 40.175l-.12 27.76c-.13 30.065-.067 28.958-1.916 34.052-2.478 6.826-7.463 11.197-15.197 13.324l-3.116.857-32.64.06c-25.573.047-33.129-.03-34.896-.355zm126.256-62.418v-62.89l8.56.085 8.56.085v62.72 62.72l-8.56.085-8.56.085zm302.189 62.412c-9.456-1.736-15.297-6.845-17.833-15.597-1.449-5-1.531-7.895-1.403-49.534.117-38.009.134-38.944.785-41.76 2.336-10.114 7.412-15.133 17.866-17.663 2.002-.485 5.479-.553 33.276-.658 32.373-.122 34.938-.042 39.587 1.236 6.35 1.745 10.968 5.47 13.5 10.89 2.786 5.963 2.593 2.203 2.593 50.675v42.88l-.716 2.687c-1.381 5.178-3.79 9.273-7.055 11.991-1.909 1.589-5.881 3.506-9.188 4.435l-2.56.719-33.28.061c-26.329.048-33.758-.028-35.571-.36zm64.531-17.685c3.508-1.422 5.42-3.765 6.244-7.65.694-3.273.694-70.559 0-73.833-.802-3.785-2.445-5.913-5.764-7.466l-1.92-.898h-28.327-28.327l-2.14 1.053c-2.507 1.234-4.091 2.929-5.124 5.481l-.723 1.785v37.12 37.12l.897 1.92c1.497 3.203 3.596 4.915 7.103 5.793 1.229.308 7.948.388 28.96.344l27.36-.057zm62.479-44.647l.081-62.8h8.313 8.313l36.232 47.84 36.807 47.84c.55 0 .578-2.068.655-47.925l.081-47.925 8.559.085 8.559.085.081 62.8.081 62.8h-8.889-8.889l-35.312-47.194-35.738-47.547c-.234-.194-.576-.26-.76-.147-.23.142-.334 15.007-.334 47.547v47.341h-8.961-8.961zm-923.599 33.548c0-25.884-.053-28.995-.503-29.445s-3.72-.503-31.2-.503h-30.697v-8.638-8.638l30.96-.082 30.96-.082.16-24.32.16-24.32h8.64 8.64v62.4 62.4l-8.56.085-8.56.085zm584.64-.01c0-25.88-.053-28.99-.503-29.44s-3.72-.503-31.2-.503h-30.697v-8.638-8.639l30.96-.082 30.96-.082.16-24.32.16-24.32 8.56-.085 8.56-.085v62.565 62.565h-8.48-8.48z" fill="#183eb5"/><path d="M1221.795 223.757c-1.67-.318-4.966-1.475-6.689-2.347-2.125-1.076-5.14-3.24-5.145-3.693 0-.176 1.45-2.72 1.45-2.72l1.751 1.316c4.889 3.674 11.059 5.213 16.377 4.085 4.644-.984 7.282-3.752 7.282-7.641 0-2.188-.791-3.996-2.345-5.361-1.687-1.481-2.944-2.053-9.315-4.237-8.42-2.887-10.079-3.88-11.863-7.1-.859-1.55-1.288-1.974-1.287-4.742 0-2.503.468-3.269 1.038-4.334.829-1.55 3.086-3.697 4.813-4.578 3.297-1.682 9.551-2.208 14.026-1.181 2.483.57 6.056 1.894 7.01 2.597.615.454-.763 3.312-.763 3.312l-2.021-.946c-5.036-2.357-11.799-2.929-15.473-1.311-4.736 2.087-6.026 7.039-2.771 10.641 1.681 1.861 3.133 2.589 9.375 4.701 6.683 2.261 8.975 3.374 10.775 5.231 1.892 1.952 2.72 3.996 2.753 6.794.061 5.274-2.622 8.768-8.283 10.786-1.451.517-2.832.699-5.895.778-2.2.056-4.36.034-4.8-.05zm133.12-.282c-.968-.263-3.104-1.139-4.748-1.946-10.352-5.084-14.854-18.075-9.84-28.393 2.678-5.509 7.239-9.395 13.467-11.472 1.941-.647 2.86-.746 6.88-.741 5.092.01 6.823.366 10.4 2.157 2.382 1.193 4.64 2.723 4.64 3.145 0 .431-1.336 2.212-1.659 2.212-.142 0-.959-.503-1.815-1.118-2.123-1.525-4.625-2.585-7.514-3.181-6.553-1.353-12.672.447-17.356 5.105-8.445 8.399-7.094 21.906 2.857 28.561 3.374 2.257 6.261 3.115 10.447 3.105 3.717-.01 5.789-.496 9.209-2.163 3.322-1.62 3.271-1.478 3.271-9.09v-6.535l2.72.196.172 15.144-1.174.968c-1.44 1.187-4.675 2.804-7.286 3.643-2.665.856-10.135 1.093-12.671.403zm-605.245-1.184c-1.261-3.405-13.634-40.459-13.635-40.83 0-.304 3.648-.224 3.648-.224l12.607 37.856c.419-.081 12.482-37.856 12.482-37.856h3.97l12.565 37.76c.5 0 12.508-37.76 12.508-37.76s3.655-.077 3.651.064-14.231 42.176-14.231 42.176h-4.102l-12.09-37.104c-.181-.191-.42-.172-.643.05-.195.195-12.302 37.053-12.302 37.053l-3.92.189zm92.285-41.215h28.16v2.88l-24.134.194c-.443.17-.443 16.082 0 16.252.278.107 21.574.194 21.574.194v2.872l-21.92.168s-.075 16.653.235 16.853c.223.142 25.206.262 25.206.262v2.88h-29.12zm76.48 21.28v-21.28h10.384c10.958 0 12.586.157 15.416 1.481 7.297 3.416 7.461 14.148.268 17.55-.962.455-1.748 1.016-1.748 1.247s.612.603 1.36.826c2.065.617 3.472 1.426 4.843 2.784 1.728 1.711 2.517 3.629 2.689 6.539.356 6.005-2.676 9.862-9.029 11.487-2.289.585-3.54.646-13.354.646h-10.829zm23.469 17.472c2.707-.886 5.384-3.28 5.938-5.312.991-3.632-.135-7.06-2.957-9.005-2.803-1.931-3.943-2.129-13.116-2.278-4.546-.073-8.614-.046-9.04.061l-.774.194v8.298c0 7.559.05 8.329.56 8.641.374.229 3.325.306 8.88.23 7.569-.103 8.518-.178 10.509-.829zm-.501-20.646c2.473-1.134 3.736-2.524 4.415-4.858 1.207-4.153-.827-8.087-4.965-9.604-1.858-.681-17.085-1.071-18.214-.467-.668.358-.684.534-.684 7.859 0 6.792.052 7.525.56 7.836.371.228 3.307.312 8.72.249l8.16-.094zm111.111-18.106h9.774c10.974 0 13.074.255 16.947 2.062 7.313 3.41 11.754 9.923 12.232 17.934.397 6.654-2.186 13.002-7.028 17.273-2.154 1.9-6.806 4.212-9.684 4.813-1.684.351-4.725.469-12.24.473l-10 .01zm22.72 38.754c10.879-3.805 15.799-15.45 10.83-25.634-2.004-4.106-6.637-7.92-11.47-9.442-2.237-.704-16.731-1.114-17.869-.505l-.131 36.179c.373.229 3.237.308 8.56.237 7.339-.098 8.172-.167 10.08-.834zm62.72-38.754h28.16v2.88l-24.021.331c-.585.313-.585 15.664 0 15.977.39.209 21.461.331 21.461.331v2.88l-21.574.194c-.443.17-.474 16.44.113 16.755.396.212 24.981.331 24.981.331v2.88h-29.12zm150.4 21.28v-21.28h3.52v21.28 21.28h-3.52zm137.28-21.28h1.864c1.529 0 1.98.13 2.508.72.354.396 26.272 35.44 26.524 35.44.391 0 .624-36 .624-36l3.36-.194v42.593h-4.037l-26.812-36.064c-.247.082-.516 36.064-.516 36.064h-3.515z" fill="#4367f9"/></svg>