<?xml version="1.0" encoding="UTF-8" standalone="no"?>
<svg
   id="b69e4d7e-41e9-4b98-8574-fc2d70ea977b"
   data-name="Layer 1"
   width="468.75635"
   height="537.42676"
   viewBox="0 0 468.75635 537.42676"
   version="1.1"
   sodipodi:docname="mobile-phone.svg"
   inkscape:version="1.1 (c4e8f9e, 2021-05-24)"
   xmlns:inkscape="http://www.inkscape.org/namespaces/inkscape"
   xmlns:sodipodi="http://sodipodi.sourceforge.net/DTD/sodipodi-0.dtd"
   xmlns="http://www.w3.org/2000/svg"
   xmlns:svg="http://www.w3.org/2000/svg">
  <sodipodi:namedview
     id="namedview840"
     pagecolor="#ffffff"
     bordercolor="#666666"
     borderopacity="1.0"
     inkscape:pageshadow="2"
     inkscape:pageopacity="0.0"
     inkscape:pagecheckerboard="0"
     showgrid="false"
     inkscape:zoom="1.0215345"
     inkscape:cx="234.4512"
     inkscape:cy="268.71338"
     inkscape:window-width="1312"
     inkscape:window-height="771"
     inkscape:window-x="0"
     inkscape:window-y="25"
     inkscape:window-maximized="0"
     inkscape:current-layer="b69e4d7e-41e9-4b98-8574-fc2d70ea977b" />
  <defs
     id="defs881" />
  <path
     id="b10fb2cf-c586-4c5f-9fbf-e678f5ffa3db"
     data-name="Path 133"
     d="m 406.16079,489.58106 a 211.72219,211.72219 0 0 1 -46.19649,37.27045 c -0.39154,0.24069 -0.7897,0.4667 -1.18925,0.70031 l -27.639,-24.46263 c 0.29035,-0.26957 0.61188,-0.57235 0.95806,-0.90494 20.59391,-19.55497 122.83077,-156.27974 129.64345,-189.57446 -0.47014,2.77384 6.14723,111.55068 -55.57677,176.97127 z"
     fill="#f0f0f0"
     style="fill:#00c57f;fill-opacity:1" />
  <path
     id="a32c10c7-75df-4179-a648-6a8d2a687209"
     data-name="Path 134"
     d="m 365.29726,531.57158 c -0.52265,0.12466 -1.0544,0.24137 -1.58764,0.34772 l -20.7355,-18.35251 c 0.40524,-0.14119 0.87883,-0.30927 1.42046,-0.49568 8.89662,-3.15026 35.39436,-12.66026 61.76413,-23.49189 28.33447,-11.64369 56.53311,-24.79986 62.59765,-33.227 -1.30094,1.95806 -41.37434,61.3363 -103.4591,75.21936 z"
     fill="#f0f0f0"
     style="fill:#00c57f;fill-opacity:1" />
  <path
     d="m 405.77737,127.71267 h -2.95289 V 46.81906 A 46.819,46.819 0 0 0 356.00548,0 H 184.62135 a 46.819,46.819 0 0 0 -46.81911,46.81891 v 443.7888 a 46.819,46.819 0 0 0 46.819,46.81906 h 171.38404 a 46.819,46.819 0 0 0 46.81915,-46.81888 V 185.29413 h 2.95294 z"
     fill="#3f3d56"
     id="path826" />
  <path
     d="m 392.85826,47.14067 v 443.14277 a 34.95659,34.95659 0 0 1 -34.9693,34.95674 H 185.67982 a 34.95435,34.95435 0 0 1 -34.957,-34.95674 V 47.14067 a 34.95435,34.95435 0 0 1 34.957,-34.95674 h 20.89839 a 16.61888,16.61888 0 0 0 15.38341,22.87963 h 98.18146 a 16.60126,16.60126 0 0 0 15.384,-22.87963 h 22.36188 a 34.95659,34.95659 0 0 1 34.9693,34.95674 z"
     fill="#ffffff"
     id="path828" />
  <path
     d="m 339.29015,277.42138 h -151.3667 a 10.0113,10.0113 0 0 1 -10,-10 v -4.97754 a 10.0113,10.0113 0 0 1 10,-10 h 151.3667 a 10.0113,10.0113 0 0 1 10,10 v 4.97754 a 10.0113,10.0113 0 0 1 -10,10 z"
     fill="#f0f0f0"
     id="path830" />
  <path
     d="m 339.29015,320.32861 h -151.3667 a 10.0113,10.0113 0 0 1 -10,-10 v -4.97754 a 10.0113,10.0113 0 0 1 10,-10 h 151.3667 a 10.0113,10.0113 0 0 1 10,10 v 4.97754 a 10.0113,10.0113 0 0 1 -10,10 z"
     fill="#f0f0f0"
     id="path832" />
  <path
     d="m 346.86193,267.82519 h -151.3667 a 10.512,10.512 0 0 1 -10.5,-10.5 v -4.97754 a 10.512,10.512 0 0 1 10.5,-10.5 h 151.3667 a 10.512,10.512 0 0 1 10.5,10.5 v 4.97754 a 10.512,10.512 0 0 1 -10.5,10.5 z m -151.3667,-23.97754 a 8.50951,8.50951 0 0 0 -8.5,8.5 v 4.97754 a 8.50951,8.50951 0 0 0 8.5,8.5 h 151.3667 a 8.50951,8.50951 0 0 0 8.5,-8.5 v -4.97754 a 8.50951,8.50951 0 0 0 -8.5,-8.5 z"
     fill="#3f3d56"
     id="path834" />
  <path
     d="m 346.86193,310.73242 h -151.3667 a 10.512,10.512 0 0 1 -10.5,-10.5 v -4.97754 a 10.512,10.512 0 0 1 10.5,-10.5 h 151.3667 a 10.512,10.512 0 0 1 10.5,10.5 v 4.97754 a 10.512,10.512 0 0 1 -10.5,10.5 z m -151.3667,-23.97754 a 8.50951,8.50951 0 0 0 -8.5,8.5 v 4.97754 a 8.50951,8.50951 0 0 0 8.5,8.5 h 151.3667 a 8.50951,8.50951 0 0 0 8.5,-8.5 v -4.97754 a 8.50951,8.50951 0 0 0 -8.5,-8.5 z"
     fill="#3f3d56"
     id="path836" />
  <path
     d="m 392.85826,47.14067 v 96.38971 A 103.53895,103.53895 0 0 1 262.97583,43.45573 q 0,-4.24023 0.34076,-8.39217 h 56.82649 a 16.60126,16.60126 0 0 0 15.384,-22.87963 h 22.36188 a 34.95659,34.95659 0 0 1 34.9693,34.95674 z"
     fill="#f0f0f0"
     id="path838"
     style="fill:#d5ffe6" />
  <path
     d="m 237.73632,519.22053 c 0,2.03176 -0.0758,4.03834 -0.23971,6.01965 h -51.81679 a 34.95435,34.95435 0 0 1 -34.957,-34.95674 v -47.3998 a 77.07339,77.07339 0 0 1 87.01347,76.33689 z"
     fill="#6c63ff"
     id="path840" />
  <rect
     x="224.84544"
     y="170.16322"
     width="42.236511"
     height="42.236511"
     transform="rotate(37.40978)"
     fill="#f0f0f0"
     id="rect868"
     style="fill:#6c63ff;fill-opacity:1" />
  <path
     d="m 56.86719,74.437814 a 33.94883,33.94883 0 0 1 27.27734,13.70214 L 103.73437,62.526254 44.95556,17.570374 0,76.349374 25.33349,95.725224 a 34.003,34.003 0 0 1 31.5337,-21.28741 z"
     fill="#f0f0f0"
     id="path870"
     style="fill:#6c63ff;fill-opacity:1" />
  <path
     d="m 296.38293,372.06933 h -71.86207 a 10.0113,10.0113 0 0 1 -10,-10 v -4.97754 a 10.0113,10.0113 0 0 1 10,-10 h 71.86207 a 10.0113,10.0113 0 0 1 10,10 v 4.97754 a 10.0113,10.0113 0 0 1 -10,10 z"
     fill="#6c63ff"
     id="path874" />
  <path
     d="m 303.95495,362.47363 h -71.86231 a 10.512,10.512 0 0 1 -10.5,-10.5 v -4.97754 a 10.512,10.512 0 0 1 10.5,-10.5 h 71.86231 a 10.512,10.512 0 0 1 10.5,10.5 v 4.97754 a 10.512,10.512 0 0 1 -10.5,10.5 z m -71.86231,-23.97754 a 8.50951,8.50951 0 0 0 -8.5,8.5 v 4.97754 a 8.50951,8.50951 0 0 0 8.5,8.5 h 71.86231 a 8.50951,8.50951 0 0 0 8.5,-8.5 v -4.97754 a 8.50951,8.50951 0 0 0 -8.5,-8.5 z"
     fill="#3f3d56"
     id="path876" />
</svg>
