<?xml version="1.0" encoding="UTF-8" standalone="no"?>
<svg
   id="e9543dae-de41-418f-9290-24abb7460ee9"
   data-name="Layer 1"
   width="1065.6971"
   height="710.71301"
   viewBox="0 0 1065.6971 710.71301"
   version="1.1"
   xmlns="http://www.w3.org/2000/svg"
   xmlns:svg="http://www.w3.org/2000/svg"
   xmlns:rdf="http://www.w3.org/1999/02/22-rdf-syntax-ns#"
   xmlns:cc="http://creativecommons.org/ns#"
   xmlns:dc="http://purl.org/dc/elements/1.1/">
  <defs
     id="defs903" />
  <title
     id="title824">speed test</title>
  <g
     id="layer3">
    <path
       style="fill:#f2fb1d;fill-opacity:1;stroke:#000000;stroke-width:0;stroke-linecap:butt;stroke-linejoin:miter;stroke-miterlimit:4;stroke-dasharray:none;stroke-opacity:1"
       d="M 64.493038,196.61881 111.448,38.115199 246.07923,174.00009 265.03482,108.92696 402.407,224.94408 423.37231,153.56932 620.24884,381.74991 448.57677,305.64237 429.98678,363.93244 297.54696,249.35963 271.42049,331.2808 Z"
       id="path2817" />
  </g>
  <g
     id="layer2"
     transform="translate(2.5511001e-4,-71.419015)"
     style="display:inline">
    <path
       id="a7e0d23c-0c47-41f1-93b9-87dfccd4c0f5"
       data-name="Path 968"
       d="m 1065.6969,240.31101 h -3.9 v -106.977 A 61.915,61.915 0 0 0 999.88185,71.419015 h -226.65 a 61.915,61.915 0 0 0 -61.916,61.913995 v 586.884 a 61.915,61.915 0 0 0 61.915,61.915 h 226.648 a 61.915,61.915 0 0 0 61.91505,-61.915 v -403.758 h 3.8999 z"
       fill="#3f3d56" />
    <path
       id="a1ad11fc-8226-4675-bbe0-e36020d9de96"
       data-name="Path 969"
       d="m 1049.0969,129.18703 v 595.175 a 46.959,46.959 0 0 1 -46.942,46.952 H 770.85488 a 46.966,46.966 0 0 1 -46.973,-46.952 v -595.175 a 46.965,46.965 0 0 1 46.971,-46.950995 h 28.058 a 22.329,22.329 0 0 0 20.656,30.739995 h 131.868 a 22.329,22.329 0 0 0 20.65597,-30.739995 h 30.05505 a 46.959,46.959 0 0 1 46.951,46.941995 z"
       fill="#ffffff" />
    <path
       id="a71e44ec-7616-4081-86af-b6db32cd39f3"
       data-name="Path 39"
       d="m 991.76285,472.01501 h -205.537 a 3.81,3.81 0 0 1 -3.806,-3.806 v -50.98398 a 3.811,3.811 0 0 1 3.806,-3.806 h 205.537 a 3.811,3.811 0 0 1 3.806,3.806 v 50.985 a 3.811,3.811 0 0 1 -3.806,3.806 z m -205.537,-57.074 a 2.286,2.286 0 0 0 -2.284,2.284 v 50.985 a 2.286,2.286 0 0 0 2.284,2.284 h 205.537 a 2.286,2.286 0 0 0 2.284,-2.284 v -50.985 a 2.286,2.286 0 0 0 -2.284,-2.284 z"
       fill="#e6e6e6" />
    <path
       id="a3f57aef-fb20-4553-8f82-b751eb5ec42c"
       data-name="Path 40"
       d="m 849.79085,431.78002 a 2.6645,2.6645 0 0 0 0,5.329 h 125.605 a 2.6650096,2.6650096 0 0 0 0.2041,-5.32611 q -0.058,-0.002 -0.1171,-0.002 H 849.79083 Z"
       fill="#e6e6e6" />
    <path
       id="a617e1da-1a45-4bf0-a146-8b20186fa5b6"
       data-name="Path 41"
       d="m 849.79085,447.764 a 2.6645,2.6645 0 0 0 0,5.329 h 125.605 a 2.6650096,2.6650096 0 0 0 0.2041,-5.32611 q -0.058,-0.002 -0.1171,-0.002 H 849.79083 Z"
       fill="#e6e6e6" />
    <path
       id="f83fafa3-5270-49ac-8952-eedc3d6c92ed"
       data-name="Path 42"
       d="m 991.76285,556.99501 h -205.537 a 3.81,3.81 0 0 1 -3.806,-3.806 v -50.98398 a 3.811,3.811 0 0 1 3.806,-3.806 h 205.537 a 3.811,3.811 0 0 1 3.806,3.806 v 50.985 a 3.811,3.811 0 0 1 -3.806,3.80498 z m -205.537,-57.074 a 2.286,2.286 0 0 0 -2.284,2.284 v 50.985 a 2.286,2.286 0 0 0 2.284,2.284 h 205.537 a 2.286,2.286 0 0 0 2.284,-2.284 v -50.985 a 2.286,2.286 0 0 0 -2.284,-2.284 z"
       fill="#e6e6e6" />
    <path
       id="b1e095e5-1d51-47f4-b1e9-85a21efab4ec"
       data-name="Path 43"
       d="m 849.79085,517.03601 a 2.6645,2.6645 0 0 0 0,5.329 h 125.605 a 2.665,2.665 0 0 0 0.087,-5.328 h -125.692 z"
       fill="#e6e6e6" />
    <path
       id="e7ccabbb-2f45-40c9-adc9-a92013dc0f4d"
       data-name="Path 44"
       d="m 849.79085,533.02404 a 2.6645,2.6645 0 0 0 0,5.329 h 125.605 a 2.665,2.665 0 0 0 0.087,-5.328 h -125.692 z"
       fill="#e6e6e6" />
    <path
       id="ec532991-8ec8-4eba-a86f-87c70c278f41"
       data-name="Path 39-2"
       d="m 991.76285,642.25302 h -205.537 a 3.81,3.81 0 0 1 -3.806,-3.806 v -50.98398 a 3.811,3.811 0 0 1 3.806,-3.806 h 205.537 a 3.811,3.811 0 0 1 3.806,3.806 v 50.985 a 3.811,3.811 0 0 1 -3.806,3.806 z m -205.537,-57.074 a 2.286,2.286 0 0 0 -2.284,2.284 v 50.985 a 2.286,2.286 0 0 0 2.284,2.284 h 205.537 a 2.286,2.286 0 0 0 2.284,-2.284 v -50.985 a 2.286,2.286 0 0 0 -2.284,-2.284 z"
       fill="#e6e6e6" />
    <path
       id="a788f10e-f95b-4590-bad9-be702445c232"
       data-name="Path 40-2"
       d="m 849.79085,602.29702 a 2.6645,2.6645 0 1 0 0,5.329 h 125.605 a 2.6650096,2.6650096 0 0 0 0.2041,-5.32611 q -0.058,-0.002 -0.1171,-0.002 H 849.79083 Z"
       fill="#e6e6e6" />
    <path
       id="f15a5014-9b42-4c0b-a546-80766b911601"
       data-name="Path 41-2"
       d="m 849.79085,618.284 a 2.6645,2.6645 0 0 0 0,5.329 h 125.605 a 2.6650096,2.6650096 0 0 0 0.2041,-5.32611 q -0.058,-0.002 -0.1171,-0.002 H 849.79083 Z"
       fill="#e6e6e6" />
    <g
       id="bf60e786-3805-43a5-8cdd-bbea060079bf"
       data-name="Group 59"
       transform="translate(565.95284,71.419035)">
      <circle
         id="a323e3dd-8f2c-40f7-a0c1-7a235f78e8b7"
         data-name="Ellipse 5"
         cx="245.91502"
         cy="370.98499"
         r="15.986"
         fill="#6c63ff" />
      <path
         id="b21d221e-9b86-4bff-9dca-a61a27263db1"
         data-name="Path 40-3"
         d="m 491.27554,461.71247 c -0.184,0 -0.333,1.193 -0.333,2.664 0,1.471 0.149,2.665 0.333,2.665 h 15.719 c 0.184,0.024 0.336,-1.149 0.339,-2.62 a 5.94306,5.94306 0 0 0 -0.328,-2.708 h -15.73 z"
         transform="translate(-253.01352,-93.71349)"
         fill="#e6e6e6" />
    </g>
    <g
       id="b51141dd-8175-4f5a-b697-41b89601b37f"
       data-name="Group 60"
       transform="translate(565.95284,71.419035)">
      <circle
         id="e363222e-d569-47a6-8bf5-edbaac636a07"
         data-name="Ellipse 5-2"
         cx="245.91502"
         cy="456.27802"
         r="15.986"
         fill="#6c63ff" />
      <path
         id="bf4b9d9b-b2cd-48cd-bc0b-2e6b007ef33d"
         data-name="Path 40-4"
         d="m 491.27554,547.00547 c -0.184,0 -0.333,1.193 -0.333,2.664 0,1.471 0.149,2.665 0.333,2.665 h 15.719 c 0.184,0.024 0.336,-1.149 0.339,-2.62 a 5.94306,5.94306 0 0 0 -0.328,-2.708 h -15.73 z"
         transform="translate(-253.01352,-93.71349)"
         fill="#e6e6e6" />
    </g>
    <g
       id="b35aa588-fd9e-4429-8570-fee6b5da93cc"
       data-name="Group 61"
       transform="translate(565.95284,71.419035)">
      <circle
         id="b896a996-d737-41ee-9642-d5eaf8a9fd6b"
         data-name="Ellipse 5-3"
         cx="245.91502"
         cy="541.53601"
         r="15.986"
         fill="#6c63ff" />
      <path
         id="f0c90521-3626-484d-9767-39f7327e6a31"
         data-name="Path 40-5"
         d="m 491.27554,632.26346 c -0.184,0 -0.333,1.193 -0.333,2.664 0,1.471 0.149,2.665 0.333,2.665 h 15.719 c 0.184,0.024 0.336,-1.149 0.339,-2.62 a 5.9431,5.9431 0 0 0 -0.328,-2.708 h -15.73 z"
         transform="translate(-253.01352,-93.71349)"
         fill="#e6e6e6" />
    </g>
    <path
       d="m 938.13921,328.08747 a 4.48656,4.48656 0 0 1 -4.01245,-2.4497 52.87438,52.87438 0 0 0 -31.37232,-26.41114 59.99908,59.99908 0 0 0 -8.408,-1.9038 l -0.57959,-0.0879 29.91972,-93.5464 0.50586,0.0176 c 58.12772,15.79492 91.38507,62.38134 100.19337,76.2832 a 4.49382,4.49382 0 0 1 -1.7966,6.42334 l -82.4307,41.19728 a 4.50685,4.50685 0 0 1 -2.01929,0.47753 z"
       fill="#e6e6e6"
       id="path1331" />
    <circle
       cx="887.9314"
       cy="337.87851"
       r="8"
       fill="#3f3d56"
       id="circle1346" />
    <path
       d="m 834.24395,327.97078 a 4.492,4.492 0 0 1 -2.1001,-0.52442 l -81.95288,-43.23437 a 4.5,4.5 0 0 1 -1.74121,-6.32471 181.66635,181.66635 0 0 1 40.991,-45.9751 c 28.30152,-22.43066 60.4939,-33.68408 95.678,-33.49512 a 151.88378,151.88378 0 0 1 39.064,5.28858 l 0.50464,0.13672 -29.927,93.541 -0.42114,-0.0635 a 66.68158,66.68158 0 0 0 -8.13867,-0.72168 c -30.45068,-0.85938 -43.64649,19.876 -47.90772,28.82959 a 4.41453,4.41453 0 0 1 -2.62011,2.31005 4.52734,4.52734 0 0 1 -1.42881,0.23293 z"
       fill="#6c63ff"
       id="path1348" />
    <path
       d="m 924.06132,204.18854 -21.15967,94.56 a 60.38421,60.38421 0 0 0 -8.48,-1.92 l 29.62988,-92.64 z"
       fill="#3f3d56"
       id="path1350" />
  </g>
  <g
     id="layer1"
     style="display:inline"
     transform="translate(2.5511001e-4,-71.419015)">
    <path
       d="m 743.22676,785.29014 -6.3818,-4.74121 c 0,0 -4.22435,23.59659 0.48949,27.132 4.71384,3.53541 22.39076,9.42769 22.39076,16.49846 0,7.07077 40.06768,16.49845 41.24614,5.8923 1.17846,-10.60615 -3.53538,-16.49845 -3.53538,-16.49845 0,0 -18.85538,-18.85538 -21.2123,-22.39076 -2.35692,-3.53538 -8.24923,-10.60615 -8.24923,-10.60615 z"
       transform="translate(-94,-53)"
       fill="#2f2e41"
       id="path840" />
    <path
       d="m 837.50364,491.85334 c 0,0 -0.17679,1.03705 -0.48306,2.93436 -0.283,1.68519 -0.6718,4.0657 -1.14322,7.00006 -4.94962,30.204 -19.38577,119.11886 -18.40755,122.05322 1.17846,3.53538 9.42768,16.49845 0,20.03384 -0.90744,0.34172 -1.88551,1.44948 -2.93436,3.19358 a 68.49432,68.49432 0 0 0 -4.98487,11.76109 c -5.62128,16.30986 -11.63155,42.4128 -15.10795,60.49035 -1.52026,7.94289 -2.55717,14.33013 -2.86358,17.67692 a 9.61182,9.61182 0 0 0 -0.0354,2.3334 c 1.17846,4.71385 -7.07076,21.2123 -10.60615,25.92615 -3.53539,4.71385 -9.42769,9.42768 -8.24922,14.14153 1.17847,4.71385 -29.46153,17.67691 -32.99691,9.42769 -3.53538,-8.24922 -3.53539,-12.96307 -4.71385,-15.32 -1.17846,-2.35693 -2.35692,-18.85537 3.53538,-21.2123 5.8923,-2.35693 2.35693,-43.603 8.24923,-51.85228 1.96794,-2.74584 4.97307,-12.04391 8.11962,-23.2275 1.23729,-4.38384 2.48653,-9.05057 3.71218,-13.729 4.97307,-19.17359 9.3805,-38.465 9.3805,-38.465 L 766.796,487.1395 l 64.81536,-8.24923 1.66153,3.665 3.31154,7.27109 z"
       transform="translate(-94,-53)"
       fill="#2f2e41"
       id="path842" />
    <path
       d="m 841.039,718.11786 c 0,0 9.42769,-9.42768 14.14153,0 4.71384,9.42768 9.42769,45.96 17.67692,54.20921 8.24923,8.24921 18.85537,49.49537 7.07076,51.85229 -11.78461,2.35692 -24.74768,-3.53538 -25.92614,-10.60615 -1.17846,-7.07077 -25.92607,-43.60306 -25.92607,-47.13844 0,-3.53538 16.49845,-16.49846 16.49845,-16.49846 z"
       transform="translate(-94,-53)"
       fill="#2f2e41"
       id="path844" />
    <path
       d="m 696.08832,427.038 c 0,0 15.32,137.87995 18.85537,150.843 3.53537,12.96305 22.39076,62.45843 28.28307,70.70766 5.89231,8.24923 43.60306,75.42151 48.3169,78.95689 4.71384,3.53538 14.14154,12.96307 14.14154,12.96307 0,0 17.67691,17.67692 20.03383,21.2123 2.35692,3.53538 22.39076,-7.07076 23.56922,-14.14153 1.17846,-7.07077 -1.17846,-18.85538 -2.35692,-23.56922 -1.17846,-4.71384 2.35692,-11.78461 -1.17846,-15.32 -3.53538,-3.53539 -21.2123,-21.2123 -21.2123,-29.46153 0,-8.24923 -30.64,-56.56613 -42.4246,-67.17228 -11.7846,-10.60615 -9.42768,-28.28307 -9.42768,-28.28307 v -71.88611 l 64.81535,-20.03384 c 0,0 -3.53538,-56.56613 -11.78461,-56.56613 -8.24923,0 -116.66764,-18.85538 -129.63071,-8.24921 z"
       transform="translate(-94,-53)"
       fill="#2f2e41"
       id="path846" />
    <circle
       cx="697.54364"
       cy="138.34576"
       r="38.889221"
       fill="#9f616a"
       id="circle848" />
    <path
       d="m 778.58059,221.98576 c 0,0 -4.71384,17.67691 -10.60615,22.39076 -5.89231,4.71385 15.32,24.74768 15.32,24.74768 l 40.06767,2.35692 7.07077,-22.39076 c 0,0 -12.96307,-25.92614 -9.42769,-42.4246 3.53538,-16.49846 -42.4246,15.32 -42.4246,15.32 z"
       transform="translate(-94,-53)"
       fill="#9f616a"
       id="path850" />
    <path
       d="m 762.08214,242.01959 c 0,0 10.60615,1.17847 12.96307,4.71385 2.35692,3.53538 18.85537,14.14153 31.81845,11.78461 12.96308,-2.35692 21.2123,-5.89231 23.56922,-4.71384 2.35692,1.17847 7.07076,25.92614 7.07076,25.92614 l -12.96307,37.71075 2.35692,103.70458 3.53539,28.28306 c 0,0 7.07076,-9.42769 -21.2123,-3.53538 -28.28306,5.89231 -64.81536,-4.71385 -76.6,-5.89231 -11.78464,-1.17846 -31.81845,-4.71384 -32.99691,-11.78461 -1.17846,-7.07077 3.53538,-32.99691 3.53538,-32.99691 l 18.85538,-78.95689 11.78461,-42.4246 z"
       transform="translate(-94,-53)"
       fill="#3f3d56"
       id="path852" />
    <path
       d="m 773.22908,236.70072 c 0,0 -9.96848,-5.28728 -13.50387,-0.57343 -3.53539,4.71385 -48.3169,11.78461 -48.3169,15.32 0,3.53539 -9.42769,98.99073 -7.07077,107.24 2.35692,8.24927 -4.71384,17.67692 -4.71384,17.67692 l -8.24923,35.35379 c 0,0 -22.39076,67.17228 -12.96307,69.5292 9.42769,2.35692 17.67692,0 21.2123,0 3.53538,0 2.35692,-44.78152 11.78461,-56.56613 9.42769,-11.78461 22.39076,-41.24614 24.74768,-47.13844 2.35692,-5.8923 31.81845,-87.20612 30.64,-96.63381 -1.17845,-9.42769 6.43309,-44.2081 6.43309,-44.2081 z"
       transform="translate(-94,-53)"
       fill="#d0cde1"
       id="path854" />
    <path
       d="m 822.18365,242.01959 c 0,0 9.42769,0 10.60615,2.35693 1.17846,2.35693 12.96307,17.67691 17.67692,21.2123 4.71385,3.53539 21.21228,18.85537 21.21228,22.39076 0,3.53539 -34.17537,29.46152 -34.17537,29.46152 0,0 -14.14153,69.52921 -7.07076,93.09843 7.07077,23.56922 17.67691,80.13535 12.96307,83.67073 -4.71384,3.53538 -15.32,4.71385 -15.32,0 0,-4.71385 -7.07077,-55.38767 -12.96308,-65.99382 -5.89231,-10.60615 -23.56922,-77.77843 -16.49845,-96.6338 7.07077,-18.85537 23.56924,-89.56305 23.56924,-89.56305 z"
       transform="translate(-94,-53)"
       fill="#d0cde1"
       id="path856" />
    <path
       d="m 666.62679,358.68724 c 0,0 -1.17846,36.53229 11.78461,55.38767 12.96307,18.85538 21.2123,40.06768 21.2123,40.06768 0,0 21.2123,-5.89231 24.74768,-12.96308 3.53538,-7.07077 25.92615,-1.17846 25.92615,-3.53538 0,-2.35692 -27.10461,-14.14153 -29.46153,-16.49845 -2.35692,-2.35692 -10.60615,-2.35693 -15.32,-7.07077 -4.71385,-4.71384 -5.89231,-15.32 -5.89231,-15.32 l -4.71384,-30.64 z"
       transform="translate(-94,-53)"
       fill="#9f616a"
       id="path858" />
    <path
       d="m 764.75883,167.36749 c -2.9918,-0.27176 -6.07737,-0.57079 -8.72149,-1.99675 -5.92458,-3.19509 -7.49563,-12.29387 -2.98552,-17.29068 a 22.344,22.344 0 0 1 4.14313,-3.33142 l 8.95783,-6.09718 c 3.96186,-2.69664 8.01737,-5.43748 12.6382,-6.70871 4.17944,-1.1498 8.59364,-1.03165 12.92,-0.76273 8.39862,0.522 16.84923,1.60028 24.74865,4.5 7.89942,2.89972 15.2682,7.75089 20.05246,14.67333 7.58453,10.9742 7.68878,25.77486 3.51145,38.444 -4.17733,12.66914 -12.11238,23.70139 -19.9311,34.51 l -4.05692,-19.7948 c -0.36135,-1.76309 -0.82864,-3.69543 -2.295,-4.7389 -3.64454,-2.59347 -8.10267,2.73144 -12.57565,2.69692 -2.87408,-0.0222 -5.28706,-2.38612 -6.37625,-5.04591 -1.08919,-2.65979 -1.1609,-5.60529 -1.4129,-8.46838 -0.53374,-6.0642 -2.65335,-14.50206 -8.39619,-17.84651 -5.35141,-3.11646 -14.20553,-2.1959 -20.2207,-2.74228 z"
       transform="translate(-94,-53)"
       fill="#2f2e41"
       id="path860" />
    <path
       d="m 766.9404,492.80446 c 0,0 3.98019,115.12729 6.33712,118.66268 2.35693,3.53539 0,-119.02457 0,-119.02457 z"
       transform="translate(-94,-53)"
       opacity="0.1"
       id="path862" />
    <path
       d="m 720.836,251.44728 h -9.42769 c 0,0 -40.06768,54.20921 -35.35383,57.74459 4.71385,3.53538 0,12.96308 0,12.96308 l -9.42769,17.67691 c 0,0 -11.78461,10.60615 -8.24923,12.96307 3.53538,2.35692 8.24923,11.78461 8.24923,11.78461 0,0 23.56922,-3.53538 30.64,10.60615 l 15.28442,-19.29563 z"
       transform="translate(-94,-53)"
       fill="#d0cde1"
       id="path864" />
    <path
       d="m 828.076,352.79493 c 0,0 -25.92615,1.17847 -55.38767,-17.67691 L 743.22676,322.155 c 0,0 -25.92614,-40.06768 -28.28307,-32.99691 -2.35693,7.07077 3.53539,21.2123 3.53539,21.2123 0,0 -35.55485,16.45476 -36.47908,18.62961 -0.92423,2.17485 19.98062,-3.30967 19.98062,-3.30967 0,0 -3.53538,22.39076 16.49846,23.56922 20.03384,1.17846 25.92614,-3.53538 25.92614,-3.53538 0,0 84.8492,70.70766 98.99073,48.3169 C 857.53748,371.65031 828.076,352.79493 828.076,352.79493 Z"
       transform="translate(-94,-53)"
       fill="#9f616a"
       id="path866" />
    <path
       d="m 858.71594,283.26573 12.96307,4.71385 v 35.35383 l 4.71385,7.07076 c 0,0 -1.17846,14.14154 -4.71385,17.67692 -3.53539,3.53538 -10.60614,2.35692 -8.24922,10.60615 a 44.667,44.667 0 0 1 1.17846,16.49845 c 0,0 -21.2123,27.10461 -22.39076,23.56923 -1.17846,-3.53538 -17.67692,-47.13845 -20.03384,-47.13845 -2.35692,0 23.56922,-68.35074 23.56922,-68.35074 z"
       transform="translate(-94,-53)"
       fill="#d0cde1"
       id="path868" />
    <path
       d="m 703.74831,461.80258 c 0,0 -12.185,-11.78461 -6.09251,-12.37384 6.09249,-0.58923 27.30481,-12.37384 30.8402,-6.48153 3.53539,5.89231 -24.74769,18.85537 -24.74769,18.85537 z"
       transform="translate(-94,-53)"
       fill="#2f2e41"
       id="path870" />
    <path
       d="M 517.71667,808 A 226.92219,226.92219 0 0 0 550,691 C 550,565.079 447.9209,463 322,463 196.0791,463 94,565.079 94,691 a 226.92219,226.92219 0 0 0 32.28333,117 z"
       fill="#3f3d56"
       id="path872"
       transform="translate(-94,-53)" />
    <circle
       cx="228"
       cy="623"
       r="22"
       fill="#6c63ff"
       id="circle874" />
    <circle
       cx="53"
       cy="659"
       r="11"
       fill="#6c63ff"
       id="circle876" />
    <circle
       cx="59.45435"
       cy="563.72638"
       r="11"
       fill="#6c63ff"
       id="circle878" />
    <circle
       cx="114.05636"
       cy="485.38516"
       r="11"
       fill="#6c63ff"
       id="circle880" />
    <circle
       cx="201.20813"
       cy="446.35574"
       r="11"
       fill="#6c63ff"
       id="circle882" />
    <circle
       cx="296.0134"
       cy="457.78748"
       r="11"
       fill="#6c63ff"
       id="circle884" />
    <circle
       cx="371.38962"
       cy="516.41473"
       r="11"
       fill="#6c63ff"
       id="circle886" />
    <circle
       cx="405.80435"
       cy="605.48969"
       r="11"
       fill="#6c63ff"
       id="circle888" />
    <circle
       cx="389.42657"
       cy="699.56677"
       r="11"
       fill="#6c63ff"
       id="circle890" />
    <line
       x1="228"
       y1="623"
       x2="341"
       y2="537"
       fill="none"
       stroke="#6c63ff"
       stroke-miterlimit="10"
       stroke-width="4"
       id="line892" />
    <circle
       cx="332.54208"
       cy="198.35201"
       r="14.75556"
       fill="none"
       stroke="#3f3d56"
       stroke-miterlimit="10"
       stroke-width="2"
       id="circle894" />
    <circle
       cx="416.54208"
       cy="370.35199"
       r="14.75556"
       fill="#3f3d56"
       id="circle896" />
    <circle
       cx="168.22292"
       cy="331.16553"
       r="42.777088"
       fill="#f2f2f2"
       id="circle898" />
  </g>
  <metadata
     id="metadata3479">
    <rdf:RDF>
      <cc:Work
         rdf:about="">
        <dc:title>speed test</dc:title>
      </cc:Work>
    </rdf:RDF>
  </metadata>
</svg>
